<svg width="114" height="60" viewBox="0 0 114 60" fill="none" xmlns="http://www.w3.org/2000/svg">
<path id="Union" fill-rule="evenodd" clip-rule="evenodd" d="M71.6785 2.78706C72.1129 1.77149 71.6418 0.596065 70.6262 0.161669C69.6107 -0.272727 68.4352 0.198405 68.0008 1.21397L44.0475 57.214C43.6131 58.2295 44.0843 59.405 45.0998 59.8394C46.1154 60.2738 47.2908 59.8026 47.7252 58.7871L71.6785 2.78706ZM34.7789 2.16058C35.5098 2.98876 35.4309 4.25263 34.6028 4.98352L6.04514 30.1859L34.6028 55.3884C35.4309 56.1193 35.5098 57.3831 34.7789 58.2113C34.0481 59.0395 32.7842 59.1184 31.956 58.3875L1.69919 31.6855L0 30.1859L1.69919 28.6864L31.956 1.9844C32.7842 1.25352 34.0481 1.3324 34.7789 2.16058ZM80.1253 58.2322C79.3829 57.4143 79.4441 56.1495 80.262 55.4071L108.047 30.1859L80.262 4.96485C79.4441 4.22244 79.3829 2.95759 80.1253 2.13972C80.8677 1.32185 82.1326 1.26067 82.9505 2.00307L112.367 28.7051L113.998 30.1859L112.367 31.6668L82.9505 58.3688C82.1326 59.1112 80.8677 59.05 80.1253 58.2322Z" fill="url(#paint0_linear_9_21)"/>
<defs>
<linearGradient id="paint0_linear_9_21" x1="114.023" y1="30.0005" x2="0.0225872" y2="30.0005" gradientUnits="userSpaceOnUse">
<stop offset="0.114583" stop-color="#2637CD"/>
<stop offset="1" stop-color="#952BFF"/>
</linearGradient>
</defs>
</svg>
